{
  "asset": {
    "generator": "UnityGLTF",
    "version": "2.0"
  },
  "scene": 0,
  "scenes": [
    {
      "nodes": [
        0
      ],
      "name": "Male Knight 01"
    }
  ],
  "accessors": [
    {
      "bufferView": 0,
      "componentType": 5126,
      "count": 1835,
      "type": "VEC3",
      "max": [
        0.55368471145629883,
        0.18726079165935516,
        1.2672927379608154
      ],
      "min": [
        -0.55368471145629883,
        -0.25182077288627625,
        -4.2134550312766805E-05
      ]
    },
    {
      "bufferView": 1,
      "componentType": 5126,
      "count": 1835,
      "type": "VEC3",
      "max": [
        0.99968457221984863,
        0.99972397089004517,
        0.9999995231628418
      ],
      "min": [
        -0.99930453300476074,
        -0.99984169006347656,
        -1.0
      ]
    },
    {
      "bufferView": 2,
      "componentType": 5126,
      "count": 1835,
      "type": "VEC4",
      "max": [
        0.99999833106994629,
        0.99999868869781494,
        0.94204467535018921,
        1.0
      ],
      "min": [
        -1.0,
        -0.99999558925628662,
        -0.984592854976654,
        -1.0
      ]
    },
    {
      "bufferView": 3,
      "componentType": 5126,
      "count": 1835,
      "type": "VEC2",
      "max": [
        0.66844242811203,
        0.988140344619751
      ],
      "min": [
        0.026290979236364365,
        0.034981071949005127
      ]
    },
    {
      "bufferView": 4,
      "componentType": 5123,
      "count": 5094,
      "type": "SCALAR",
      "max": [
        1834.0
      ],
      "min": [
        0.0
      ]
    },
    {
      "bufferView": 5,
      "componentType": 5126,
      "count": 36,
      "type": "MAT4"
    },
    {
      "bufferView": 6,
      "componentType": 5123,
      "count": 1835,
      "type": "VEC4",
      "max": [
        34.0,
        34.0,
        26.0,
        0.0
      ],
      "min": [
        0.0,
        0.0,
        0.0,
        0.0
      ]
    },
    {
      "bufferView": 7,
      "componentType": 5126,
      "count": 1835,
      "type": "VEC4",
      "max": [
        1.0,
        0.5,
        0.25,
        0.0
      ],
      "min": [
        0.375,
        0.0,
        0.0,
        0.0
      ]
    }
  ],
  "buffers": [
    {
      "uri": "Male Knight 01.bin",
      "byteLength": 144612
    }
  ],
  "bufferViews": [
    {
      "buffer": 0,
      "byteLength": 22020,
      "byteStride": 12,
      "target": 34962
    },
    {
      "buffer": 0,
      "byteOffset": 22020,
      "byteLength": 22020,
      "byteStride": 12,
      "target": 34962
    },
    {
      "buffer": 0,
      "byteOffset": 44040,
      "byteLength": 29360,
      "target": 34962
    },
    {
      "buffer": 0,
      "byteOffset": 73400,
      "byteLength": 14680,
      "target": 34962
    },
    {
      "buffer": 0,
      "byteOffset": 88080,
      "byteLength": 10188,
      "target": 34963
    },
    {
      "buffer": 0,
      "byteOffset": 98268,
      "byteLength": 2304
    },
    {
      "buffer": 0,
      "byteOffset": 100572,
      "byteLength": 14680,
      "target": 34962
    },
    {
      "buffer": 0,
      "byteOffset": 115252,
      "byteLength": 29360,
      "target": 34962
    }
  ],
  "materials": [
    {
      "pbrMetallicRoughness": {
        "metallicFactor": 0.0,
        "roughnessFactor": 0.5
      },
      "name": "Default-Material"
    }
  ],
  "meshes": [
    {
      "primitives": [
        {
          "attributes": {
            "POSITION": 0,
            "NORMAL": 1,
            "TANGENT": 2,
            "TEXCOORD_0": 3,
            "JOINTS_0": 6,
            "WEIGHTS_0": 7
          },
          "indices": 4,
          "material": 0
        }
      ],
      "name": "Male Knight 01"
    }
  ],
  "nodes": [
    {
      "children": [
        1,
        2,
        3,
        4,
        42
      ],
      "name": "Male Knight 01"
    },
    {
      "skin": 0,
      "mesh": 0,
      "rotation": [
        -0.7071068,
        0.0,
        0.0,
        0.7071068
      ],
      "name": "Male Knight 01"
    },
    {
      "rotation": [
        0.50000006,
        0.50000006,
        0.49999997,
        0.49999997
      ],
      "name": "Rig"
    },
    {
      "rotation": [
        0.50000006,
        0.50000006,
        0.49999997,
        0.49999997
      ],
      "translation": [
        0.117126107,
        0.00448797224,
        0.100568734
      ],
      "name": "RigLPlatform"
    },
    {
      "children": [
        5,
        10,
        15
      ],
      "rotation": [
        0.5,
        0.5,
        0.5,
        0.5
      ],
      "translation": [
        1.33514376E-07,
        0.6149364,
        0.0003728537
      ],
      "name": "RigPelvis"
    },
    {
      "children": [
        6
      ],
      "rotation": [
        -0.0416280627,
        -0.998354733,
        0.03812211,
        0.0100834314
      ],
      "scale": [
        1.0,
        1.0,
        1.00000012
      ],
      "translation": [
        -0.061012648,
        -0.00368941948,
        0.115601078
      ],
      "name": "RigLThigh"
    },
    {
      "children": [
        7
      ],
      "rotation": [
        -0.0605662428,
        -0.009119451,
        -0.0791701749,
        0.9949778
      ],
      "scale": [
        0.9999997,
        1.00000012,
        0.9999998
      ],
      "translation": [
        0.257207185,
        7.13109966E-06,
        -3.7193297E-07
      ],
      "name": "RigLCalf"
    },
    {
      "children": [
        8
      ],
      "rotation": [
        0.0258978233,
        -0.02066495,
        0.4329802,
        0.9007944
      ],
      "scale": [
        1.00000167,
        0.999998569,
        1.00000012
      ],
      "translation": [
        0.203104436,
        0.0,
        0.0
      ],
      "name": "RigLFoot"
    },
    {
      "children": [
        9
      ],
      "rotation": [
        -0.0148875546,
        0.00571105,
        0.3575502,
        0.9337578
      ],
      "scale": [
        1.00000012,
        1.00000012,
        0.99999994
      ],
      "translation": [
        0.133138642,
        -5.13124469E-05,
        -4.54902647E-06
      ],
      "name": "RigLToe11"
    },
    {
      "rotation": [
        -0.000537938846,
        0.00167548447,
        -0.9954929,
        0.09481994
      ],
      "scale": [
        1.00000012,
        1.0,
        0.99999994
      ],
      "translation": [
        0.05733176,
        1.19209287E-09,
        -9.536743E-09
      ],
      "name": "RigLToe12"
    },
    {
      "children": [
        11
      ],
      "rotation": [
        -0.0374095738,
        -0.9985059,
        -0.03866678,
        -0.009564557
      ],
      "scale": [
        1.0,
        1.0,
        0.99999994
      ],
      "translation": [
        -0.06101242,
        0.000443881,
        -0.115600996
      ],
      "name": "RigRThigh"
    },
    {
      "children": [
        12
      ],
      "rotation": [
        0.061178524,
        0.008315115,
        -0.06785108,
        0.995783269
      ],
      "scale": [
        1.0,
        1.00000012,
        1.0
      ],
      "translation": [
        0.2570285,
        6.74724561E-06,
        4.196167E-07
      ],
      "name": "RigRCalf"
    },
    {
      "children": [
        13
      ],
      "rotation": [
        -0.026420366,
        0.0203990322,
        0.408132464,
        0.9123123
      ],
      "scale": [
        0.9999984,
        1.00000131,
        0.9999999
      ],
      "translation": [
        0.202913016,
        5.96046434E-10,
        0.0
      ],
      "name": "RigRFoot"
    },
    {
      "children": [
        14
      ],
      "rotation": [
        0.0144760124,
        -0.005883099,
        0.376446933,
        0.9263064
      ],
      "scale": [
        1.00000012,
        0.99999994,
        1.0
      ],
      "translation": [
        0.127653748,
        -3.77655E-06,
        1.62124627E-06
      ],
      "name": "RigRToe11"
    },
    {
      "rotation": [
        0.000614040939,
        -0.0014642945,
        -0.984009445,
        0.178109214
      ],
      "scale": [
        0.99999994,
        1.0,
        1.0
      ],
      "translation": [
        0.0575835221,
        2.38418574E-09,
        9.536743E-09
      ],
      "name": "RigRToe12"
    },
    {
      "children": [
        16
      ],
      "rotation": [
        1.41075374E-08,
        -7.023184E-10,
        -0.0221148618,
        0.999755442
      ],
      "scale": [
        0.999999762,
        0.999999762,
        1.0
      ],
      "translation": [
        0.109708019,
        -0.00492136367,
        7.3929185E-10
      ],
      "name": "RigSpine1"
    },
    {
      "children": [
        17
      ],
      "rotation": [
        -3.637839E-08,
        -5.32543076E-09,
        -0.000378671917,
        0.99999994
      ],
      "scale": [
        1.00000036,
        1.00000024,
        1.0
      ],
      "translation": [
        0.128121331,
        0.0,
        0.0
      ],
      "name": "RigSpine2"
    },
    {
      "children": [
        18
      ],
      "rotation": [
        4.032032E-08,
        2.19589347E-09,
        0.0929586962,
        0.995669961
      ],
      "scale": [
        1.0,
        1.00000012,
        1.0
      ],
      "translation": [
        0.146424487,
        2.38418574E-09,
        9.094947E-15
      ],
      "name": "RigSpine3"
    },
    {
      "children": [
        19,
        29,
        32
      ],
      "rotation": [
        -3.5377564E-08,
        8.137332E-08,
        -0.07053914,
        0.997509
      ],
      "scale": [
        1.00000012,
        1.0,
        1.0
      ],
      "translation": [
        0.171314687,
        0.0,
        0.0
      ],
      "name": "RigRibcage"
    },
    {
      "children": [
        20
      ],
      "rotation": [
        -0.01381569,
        -0.820087969,
        -0.0193179678,
        0.5717445
      ],
      "translation": [
        -0.0300963577,
        -0.0315065123,
        0.06875161
      ],
      "name": "RigLCollarbone"
    },
    {
      "children": [
        21
      ],
      "rotation": [
        0.0219666716,
        -0.307361066,
        -0.00712893857,
        0.951312661
      ],
      "scale": [
        0.999999762,
        0.9999999,
        1.00000024
      ],
      "translation": [
        0.1466811,
        4.053116E-08,
        -7.62939436E-08
      ],
      "name": "RigLUpperarm"
    },
    {
      "children": [
        22
      ],
      "rotation": [
        -0.006054405,
        -0.0327058733,
        0.185473755,
        0.9820861
      ],
      "scale": [
        1.00000012,
        0.9999999,
        1.0
      ],
      "translation": [
        0.276217341,
        0.0,
        7.62939436E-08
      ],
      "name": "RigLForearm"
    },
    {
      "children": [
        23,
        26
      ],
      "rotation": [
        -0.7164266,
        -0.07365076,
        -0.0459400564,
        0.6922413
      ],
      "scale": [
        1.0,
        0.99999994,
        0.99999994
      ],
      "translation": [
        0.208613351,
        -2.28881831E-07,
        7.62939436E-08
      ],
      "name": "RigLPalm"
    },
    {
      "children": [
        24
      ],
      "rotation": [
        -0.0009200043,
        -0.47066167,
        -0.00290135876,
        0.882308543
      ],
      "scale": [
        0.9999987,
        0.99999994,
        1.00000119
      ],
      "translation": [
        0.03561676,
        9.338379E-05,
        0.05246233
      ],
      "name": "RigLFinger11"
    },
    {
      "children": [
        25
      ],
      "rotation": [
        -0.001269221,
        0.0178503264,
        -0.07902574,
        0.996711969
      ],
      "scale": [
        0.9999987,
        0.99999994,
        1.00000131
      ],
      "translation": [
        0.05138335,
        0.0,
        0.0
      ],
      "name": "RigLFinger12"
    },
    {
      "rotation": [
        0.0122395782,
        0.00487970235,
        -0.0341146775,
        0.999331057
      ],
      "scale": [
        0.9999987,
        0.9999998,
        1.00000143
      ],
      "translation": [
        0.0534910746,
        0.0,
        -3.81469718E-08
      ],
      "name": "RigLFinger13"
    },
    {
      "children": [
        27
      ],
      "rotation": [
        0.00894140452,
        0.0407727361,
        0.0355079137,
        0.9984973
      ],
      "scale": [
        1.00000024,
        0.9999999,
        0.999999762
      ],
      "translation": [
        0.138771012,
        0.000675659161,
        -0.007317886
      ],
      "name": "RigLFinger21"
    },
    {
      "children": [
        28
      ],
      "rotation": [
        -0.0017843612,
        -0.0388172939,
        -0.15180485,
        0.9876464
      ],
      "scale": [
        1.00000024,
        0.9999997,
        0.99999994
      ],
      "translation": [
        0.0404511429,
        0.0,
        -3.81469718E-08
      ],
      "name": "RigLFinger22"
    },
    {
      "rotation": [
        0.0177895352,
        0.0173454117,
        -0.0591567047,
        0.997939467
      ],
      "scale": [
        1.00000024,
        0.9999998,
        0.9999999
      ],
      "translation": [
        0.03831825,
        0.0,
        9.5367426E-08
      ],
      "name": "RigLFinger23"
    },
    {
      "children": [
        30
      ],
      "rotation": [
        -7.756446E-08,
        -8.98302659E-08,
        0.09581775,
        0.995398939
      ],
      "scale": [
        0.99999994,
        1.0,
        0.9999999
      ],
      "translation": [
        -0.005050278,
        -0.0315439142,
        -2.13301976E-09
      ],
      "name": "RigNeck"
    },
    {
      "children": [
        31
      ],
      "rotation": [
        7.756447E-08,
        8.983025E-08,
        -0.09581774,
        0.995398939
      ],
      "scale": [
        1.00000012,
        1.0,
        1.00000012
      ],
      "translation": [
        0.050812453,
        0.0,
        0.0
      ],
      "name": "RigHead"
    },
    {
      "rotation": [
        -6.664002E-08,
        -8.46694355E-29,
        1.27054942E-21,
        1.0
      ],
      "translation": [
        0.494532853,
        0.09610081,
        8.530383E-08
      ],
      "name": "RigHeadBone001"
    },
    {
      "children": [
        33
      ],
      "rotation": [
        0.0138151748,
        0.8200881,
        -0.0193174668,
        0.571744263
      ],
      "translation": [
        -0.0300963577,
        -0.0315065123,
        -0.06875161
      ],
      "name": "RigRCollarbone"
    },
    {
      "children": [
        34
      ],
      "rotation": [
        -0.0219667479,
        0.307361126,
        -0.00712890644,
        0.951312661
      ],
      "scale": [
        1.00000024,
        0.99999994,
        0.9999997
      ],
      "translation": [
        0.14668107,
        -4.529953E-08,
        -7.62939436E-08
      ],
      "name": "RigRUpperarm"
    },
    {
      "children": [
        35
      ],
      "rotation": [
        0.00605432829,
        0.032705836,
        0.185474247,
        0.982086062
      ],
      "scale": [
        1.0,
        0.9999999,
        1.0
      ],
      "translation": [
        0.276217341,
        0.0,
        0.0
      ],
      "name": "RigRForearm"
    },
    {
      "children": [
        36,
        39
      ],
      "rotation": [
        0.7164266,
        0.07365166,
        -0.04593946,
        0.6922413
      ],
      "scale": [
        1.00000024,
        0.99999994,
        0.999999762
      ],
      "translation": [
        0.208613321,
        1.7166137E-07,
        -7.62939436E-08
      ],
      "name": "RigRPalm"
    },
    {
      "children": [
        37
      ],
      "rotation": [
        0.000919570331,
        0.470661163,
        -0.00290109124,
        0.882308841
      ],
      "scale": [
        1.00000083,
        0.99999994,
        0.9999992
      ],
      "translation": [
        0.03561699,
        9.330749E-05,
        -0.0524623655
      ],
      "name": "RigRFinger11"
    },
    {
      "children": [
        38
      ],
      "rotation": [
        0.0012680653,
        -0.0178503618,
        -0.0790258348,
        0.996711969
      ],
      "scale": [
        1.00000083,
        0.99999994,
        0.9999992
      ],
      "translation": [
        0.0513834469,
        7.62939436E-08,
        -3.81469718E-08
      ],
      "name": "RigRFinger12"
    },
    {
      "rotation": [
        -0.0122404657,
        -0.004878981,
        -0.0341129228,
        0.9993311
      ],
      "scale": [
        1.00000083,
        1.0,
        0.9999992
      ],
      "translation": [
        0.05349116,
        0.0,
        0.0
      ],
      "name": "RigRFinger13"
    },
    {
      "children": [
        40
      ],
      "rotation": [
        -0.0089416,
        -0.04077161,
        0.0355078056,
        0.998497367
      ],
      "translation": [
        0.138771117,
        0.000675582851,
        0.007317581
      ],
      "name": "RigRFinger21"
    },
    {
      "children": [
        41
      ],
      "rotation": [
        0.00178543071,
        0.0388163365,
        -0.151804611,
        0.987646461
      ],
      "scale": [
        1.00000012,
        1.0,
        0.999999762
      ],
      "translation": [
        0.04045116,
        -7.62939436E-08,
        -3.81469718E-08
      ],
      "name": "RigRFinger22"
    },
    {
      "rotation": [
        -0.0177864525,
        -0.0173479058,
        -0.0591561534,
        0.9979395
      ],
      "scale": [
        1.00000012,
        0.99999994,
        0.999999642
      ],
      "translation": [
        0.0383182131,
        0.0,
        9.5367426E-08
      ],
      "name": "RigRFinger23"
    },
    {
      "rotation": [
        0.50000006,
        0.50000006,
        0.49999997,
        0.49999997
      ],
      "translation": [
        -0.117125824,
        0.004488783,
        0.09778633
      ],
      "name": "RigRPlatform"
    }
  ],
  "skins": [
    {
      "inverseBindMatrices": 5,
      "joints": [
        32,
        18,
        33,
        30,
        17,
        16,
        15,
        4,
        20,
        19,
        21,
        22,
        23,
        36,
        35,
        34,
        24,
        26,
        27,
        25,
        28,
        37,
        39,
        40,
        38,
        41,
        5,
        10,
        6,
        7,
        8,
        9,
        11,
        12,
        13,
        14
      ]
    }
  ]
}